<mxfile host="app.diagrams.net" agent="Mozilla/5.0 (Windows NT 10.0; Win64; x64) AppleWebKit/537.36 (KHTML, like Gecko) Chrome/136.0.0.0 Safari/537.36" version="27.0.3" pages="4">
  <diagram id="2P01aS3b79AhaIWzOZK_" name="SignedWith">
    <mxGraphModel dx="1226" dy="620" grid="1" gridSize="10" guides="1" tooltips="1" connect="1" arrows="1" fold="1" page="1" pageScale="1" pageWidth="2339" pageHeight="3300" math="0" shadow="0">
      <root>
        <mxCell id="0" />
        <mxCell id="1" parent="0" />
        <mxCell id="wls_pRcqSYBTs-uJ6IMm-1" value="Drake" style="rounded=0;whiteSpace=wrap;html=1;shape=ellipse;fillColor=#FF6666;strokeColor=#000000;fontSize=12;" vertex="1" parent="1">
          <mxGeometry x="100" y="100" width="80" height="80" as="geometry" />
        </mxCell>
        <mxCell id="wls_pRcqSYBTs-uJ6IMm-2" value="1" style="rounded=0;whiteSpace=wrap;html=1;shape=ellipse;fillColor=#FFFFFF;strokeColor=#000000;fontSize=10;" vertex="1" parent="1">
          <mxGeometry x="140" y="100" width="20" height="20" as="geometry" />
        </mxCell>
        <mxCell id="wls_pRcqSYBTs-uJ6IMm-3" value="Travis Scott" style="rounded=0;whiteSpace=wrap;html=1;shape=ellipse;fillColor=#FF6666;strokeColor=#000000;fontSize=12;" vertex="1" parent="1">
          <mxGeometry x="200" y="100" width="80" height="80" as="geometry" />
        </mxCell>
        <mxCell id="wls_pRcqSYBTs-uJ6IMm-4" value="2" style="rounded=0;whiteSpace=wrap;html=1;shape=ellipse;fillColor=#FFFFFF;strokeColor=#000000;fontSize=10;" vertex="1" parent="1">
          <mxGeometry x="240" y="100" width="20" height="20" as="geometry" />
        </mxCell>
        <mxCell id="wls_pRcqSYBTs-uJ6IMm-5" value="Kendrick Lamar" style="rounded=0;whiteSpace=wrap;html=1;shape=ellipse;fillColor=#FF6666;strokeColor=#000000;fontSize=12;" vertex="1" parent="1">
          <mxGeometry x="300" y="100" width="80" height="80" as="geometry" />
        </mxCell>
        <mxCell id="wls_pRcqSYBTs-uJ6IMm-6" value="3" style="rounded=0;whiteSpace=wrap;html=1;shape=ellipse;fillColor=#FFFFFF;strokeColor=#000000;fontSize=10;" vertex="1" parent="1">
          <mxGeometry x="340" y="100" width="20" height="20" as="geometry" />
        </mxCell>
        <mxCell id="wls_pRcqSYBTs-uJ6IMm-7" value="Cardi B" style="rounded=0;whiteSpace=wrap;html=1;shape=ellipse;fillColor=#FF6666;strokeColor=#000000;fontSize=12;" vertex="1" parent="1">
          <mxGeometry x="400" y="100" width="80" height="80" as="geometry" />
        </mxCell>
        <mxCell id="wls_pRcqSYBTs-uJ6IMm-8" value="4" style="rounded=0;whiteSpace=wrap;html=1;shape=ellipse;fillColor=#FFFFFF;strokeColor=#000000;fontSize=10;" vertex="1" parent="1">
          <mxGeometry x="440" y="100" width="20" height="20" as="geometry" />
        </mxCell>
        <mxCell id="wls_pRcqSYBTs-uJ6IMm-9" value="Megan Thee Stallion" style="rounded=0;whiteSpace=wrap;html=1;shape=ellipse;fillColor=#FF6666;strokeColor=#000000;fontSize=12;" vertex="1" parent="1">
          <mxGeometry x="500" y="100" width="80" height="80" as="geometry" />
        </mxCell>
        <mxCell id="wls_pRcqSYBTs-uJ6IMm-10" value="5" style="rounded=0;whiteSpace=wrap;html=1;shape=ellipse;fillColor=#FFFFFF;strokeColor=#000000;fontSize=10;" vertex="1" parent="1">
          <mxGeometry x="540" y="100" width="20" height="20" as="geometry" />
        </mxCell>
        <mxCell id="wls_pRcqSYBTs-uJ6IMm-11" value="Doja Cat" style="rounded=0;whiteSpace=wrap;html=1;shape=ellipse;fillColor=#FF6666;strokeColor=#000000;fontSize=12;" vertex="1" parent="1">
          <mxGeometry x="600" y="100" width="80" height="80" as="geometry" />
        </mxCell>
        <mxCell id="wls_pRcqSYBTs-uJ6IMm-12" value="6" style="rounded=0;whiteSpace=wrap;html=1;shape=ellipse;fillColor=#FFFFFF;strokeColor=#000000;fontSize=10;" vertex="1" parent="1">
          <mxGeometry x="640" y="100" width="20" height="20" as="geometry" />
        </mxCell>
        <mxCell id="wls_pRcqSYBTs-uJ6IMm-13" value="J. Cole" style="rounded=0;whiteSpace=wrap;html=1;shape=ellipse;fillColor=#FF6666;strokeColor=#000000;fontSize=12;" vertex="1" parent="1">
          <mxGeometry x="700" y="100" width="80" height="80" as="geometry" />
        </mxCell>
        <mxCell id="wls_pRcqSYBTs-uJ6IMm-14" value="7" style="rounded=0;whiteSpace=wrap;html=1;shape=ellipse;fillColor=#FFFFFF;strokeColor=#000000;fontSize=10;" vertex="1" parent="1">
          <mxGeometry x="740" y="100" width="20" height="20" as="geometry" />
        </mxCell>
        <mxCell id="wls_pRcqSYBTs-uJ6IMm-15" value="Post Malone" style="rounded=0;whiteSpace=wrap;html=1;shape=ellipse;fillColor=#FF6666;strokeColor=#000000;fontSize=12;" vertex="1" parent="1">
          <mxGeometry x="800" y="100" width="80" height="80" as="geometry" />
        </mxCell>
        <mxCell id="wls_pRcqSYBTs-uJ6IMm-16" value="8" style="rounded=0;whiteSpace=wrap;html=1;shape=ellipse;fillColor=#FFFFFF;strokeColor=#000000;fontSize=10;" vertex="1" parent="1">
          <mxGeometry x="840" y="100" width="20" height="20" as="geometry" />
        </mxCell>
        <mxCell id="wls_pRcqSYBTs-uJ6IMm-17" value="Lil Baby" style="rounded=0;whiteSpace=wrap;html=1;shape=ellipse;fillColor=#FF6666;strokeColor=#000000;fontSize=12;" vertex="1" parent="1">
          <mxGeometry x="900" y="100" width="80" height="80" as="geometry" />
        </mxCell>
        <mxCell id="wls_pRcqSYBTs-uJ6IMm-18" value="9" style="rounded=0;whiteSpace=wrap;html=1;shape=ellipse;fillColor=#FFFFFF;strokeColor=#000000;fontSize=10;" vertex="1" parent="1">
          <mxGeometry x="940" y="100" width="20" height="20" as="geometry" />
        </mxCell>
        <mxCell id="wls_pRcqSYBTs-uJ6IMm-19" value="Nicki Minaj" style="rounded=0;whiteSpace=wrap;html=1;shape=ellipse;fillColor=#FF6666;strokeColor=#000000;fontSize=12;" vertex="1" parent="1">
          <mxGeometry x="1000" y="100" width="80" height="80" as="geometry" />
        </mxCell>
        <mxCell id="wls_pRcqSYBTs-uJ6IMm-20" value="10" style="rounded=0;whiteSpace=wrap;html=1;shape=ellipse;fillColor=#FFFFFF;strokeColor=#000000;fontSize=10;" vertex="1" parent="1">
          <mxGeometry x="1040" y="100" width="20" height="20" as="geometry" />
        </mxCell>
        <mxCell id="wls_pRcqSYBTs-uJ6IMm-21" value="Hit Factory" style="rounded=0;whiteSpace=wrap;html=1;shape=rectangle;fillColor=#6666FF;strokeColor=#000000;fontSize=12;" vertex="1" parent="1">
          <mxGeometry x="100" y="400" width="80" height="60" as="geometry" />
        </mxCell>
        <mxCell id="wls_pRcqSYBTs-uJ6IMm-22" value="1" style="rounded=0;whiteSpace=wrap;html=1;shape=ellipse;fillColor=#FFFFFF;strokeColor=#000000;fontSize=10;" vertex="1" parent="1">
          <mxGeometry x="140" y="400" width="20" height="20" as="geometry" />
        </mxCell>
        <mxCell id="wls_pRcqSYBTs-uJ6IMm-23" value="Electric Lady" style="rounded=0;whiteSpace=wrap;html=1;shape=rectangle;fillColor=#6666FF;strokeColor=#000000;fontSize=12;" vertex="1" parent="1">
          <mxGeometry x="200" y="400" width="80" height="60" as="geometry" />
        </mxCell>
        <mxCell id="wls_pRcqSYBTs-uJ6IMm-24" value="2" style="rounded=0;whiteSpace=wrap;html=1;shape=ellipse;fillColor=#FFFFFF;strokeColor=#000000;fontSize=10;" vertex="1" parent="1">
          <mxGeometry x="240" y="400" width="20" height="20" as="geometry" />
        </mxCell>
        <mxCell id="wls_pRcqSYBTs-uJ6IMm-25" value="Abbey Road" style="rounded=0;whiteSpace=wrap;html=1;shape=rectangle;fillColor=#6666FF;strokeColor=#000000;fontSize=12;" vertex="1" parent="1">
          <mxGeometry x="300" y="400" width="80" height="60" as="geometry" />
        </mxCell>
        <mxCell id="wls_pRcqSYBTs-uJ6IMm-26" value="3" style="rounded=0;whiteSpace=wrap;html=1;shape=ellipse;fillColor=#FFFFFF;strokeColor=#000000;fontSize=10;" vertex="1" parent="1">
          <mxGeometry x="340" y="400" width="20" height="20" as="geometry" />
        </mxCell>
        <mxCell id="wls_pRcqSYBTs-uJ6IMm-27" value="Westlake" style="rounded=0;whiteSpace=wrap;html=1;shape=rectangle;fillColor=#6666FF;strokeColor=#000000;fontSize=12;" vertex="1" parent="1">
          <mxGeometry x="400" y="400" width="80" height="60" as="geometry" />
        </mxCell>
        <mxCell id="wls_pRcqSYBTs-uJ6IMm-28" value="4" style="rounded=0;whiteSpace=wrap;html=1;shape=ellipse;fillColor=#FFFFFF;strokeColor=#000000;fontSize=10;" vertex="1" parent="1">
          <mxGeometry x="440" y="400" width="20" height="20" as="geometry" />
        </mxCell>
        <mxCell id="wls_pRcqSYBTs-uJ6IMm-29" value="Metropolis" style="rounded=0;whiteSpace=wrap;html=1;shape=rectangle;fillColor=#6666FF;strokeColor=#000000;fontSize=12;" vertex="1" parent="1">
          <mxGeometry x="500" y="400" width="80" height="60" as="geometry" />
        </mxCell>
        <mxCell id="wls_pRcqSYBTs-uJ6IMm-30" value="5" style="rounded=0;whiteSpace=wrap;html=1;shape=ellipse;fillColor=#FFFFFF;strokeColor=#000000;fontSize=10;" vertex="1" parent="1">
          <mxGeometry x="540" y="400" width="20" height="20" as="geometry" />
        </mxCell>
        <mxCell id="wls_pRcqSYBTs-uJ6IMm-31" value="Record Plant" style="rounded=0;whiteSpace=wrap;html=1;shape=rectangle;fillColor=#6666FF;strokeColor=#000000;fontSize=12;" vertex="1" parent="1">
          <mxGeometry x="600" y="400" width="80" height="60" as="geometry" />
        </mxCell>
        <mxCell id="wls_pRcqSYBTs-uJ6IMm-32" value="6" style="rounded=0;whiteSpace=wrap;html=1;shape=ellipse;fillColor=#FFFFFF;strokeColor=#000000;fontSize=10;" vertex="1" parent="1">
          <mxGeometry x="640" y="400" width="20" height="20" as="geometry" />
        </mxCell>
        <mxCell id="wls_pRcqSYBTs-uJ6IMm-33" value="Tree Sound" style="rounded=0;whiteSpace=wrap;html=1;shape=rectangle;fillColor=#6666FF;strokeColor=#000000;fontSize=12;" vertex="1" parent="1">
          <mxGeometry x="700" y="400" width="80" height="60" as="geometry" />
        </mxCell>
        <mxCell id="wls_pRcqSYBTs-uJ6IMm-34" value="7" style="rounded=0;whiteSpace=wrap;html=1;shape=ellipse;fillColor=#FFFFFF;strokeColor=#000000;fontSize=10;" vertex="1" parent="1">
          <mxGeometry x="740" y="400" width="20" height="20" as="geometry" />
        </mxCell>
        <mxCell id="wls_pRcqSYBTs-uJ6IMm-35" value="Studio 54" style="rounded=0;whiteSpace=wrap;html=1;shape=rectangle;fillColor=#6666FF;strokeColor=#000000;fontSize=12;" vertex="1" parent="1">
          <mxGeometry x="800" y="400" width="80" height="60" as="geometry" />
        </mxCell>
        <mxCell id="wls_pRcqSYBTs-uJ6IMm-36" value="8" style="rounded=0;whiteSpace=wrap;html=1;shape=ellipse;fillColor=#FFFFFF;strokeColor=#000000;fontSize=10;" vertex="1" parent="1">
          <mxGeometry x="840" y="400" width="20" height="20" as="geometry" />
        </mxCell>
        <mxCell id="wls_pRcqSYBTs-uJ6IMm-37" value="Chalice" style="rounded=0;whiteSpace=wrap;html=1;shape=rectangle;fillColor=#6666FF;strokeColor=#000000;fontSize=12;" vertex="1" parent="1">
          <mxGeometry x="900" y="400" width="80" height="60" as="geometry" />
        </mxCell>
        <mxCell id="wls_pRcqSYBTs-uJ6IMm-38" value="9" style="rounded=0;whiteSpace=wrap;html=1;shape=ellipse;fillColor=#FFFFFF;strokeColor=#000000;fontSize=10;" vertex="1" parent="1">
          <mxGeometry x="940" y="400" width="20" height="20" as="geometry" />
        </mxCell>
        <mxCell id="wls_pRcqSYBTs-uJ6IMm-39" value="Air Studios" style="rounded=0;whiteSpace=wrap;html=1;shape=rectangle;fillColor=#6666FF;strokeColor=#000000;fontSize=12;" vertex="1" parent="1">
          <mxGeometry x="1000" y="400" width="80" height="60" as="geometry" />
        </mxCell>
        <mxCell id="wls_pRcqSYBTs-uJ6IMm-40" value="10" style="rounded=0;whiteSpace=wrap;html=1;shape=ellipse;fillColor=#FFFFFF;strokeColor=#000000;fontSize=10;" vertex="1" parent="1">
          <mxGeometry x="1040" y="400" width="20" height="20" as="geometry" />
        </mxCell>
        <mxCell id="wls_pRcqSYBTs-uJ6IMm-41" value="" style="edgeStyle=orthogonalEdgeStyle;rounded=0;html=1;jettySize=auto;orthogonalLoop=1;endArrow=block;endFill=1;strokeColor=#0000FF;" edge="1" parent="1" source="wls_pRcqSYBTs-uJ6IMm-1" target="wls_pRcqSYBTs-uJ6IMm-21">
          <mxGeometry relative="1" as="geometry" />
        </mxCell>
        <mxCell id="wls_pRcqSYBTs-uJ6IMm-42" value="" style="edgeStyle=orthogonalEdgeStyle;rounded=0;html=1;jettySize=auto;orthogonalLoop=1;endArrow=block;endFill=1;strokeColor=#0000FF;" edge="1" parent="1" source="wls_pRcqSYBTs-uJ6IMm-3" target="wls_pRcqSYBTs-uJ6IMm-23">
          <mxGeometry relative="1" as="geometry" />
        </mxCell>
        <mxCell id="wls_pRcqSYBTs-uJ6IMm-43" value="" style="edgeStyle=orthogonalEdgeStyle;rounded=0;html=1;jettySize=auto;orthogonalLoop=1;endArrow=block;endFill=1;strokeColor=#0000FF;" edge="1" parent="1" source="wls_pRcqSYBTs-uJ6IMm-5" target="wls_pRcqSYBTs-uJ6IMm-25">
          <mxGeometry relative="1" as="geometry" />
        </mxCell>
        <mxCell id="wls_pRcqSYBTs-uJ6IMm-44" value="" style="edgeStyle=orthogonalEdgeStyle;rounded=0;html=1;jettySize=auto;orthogonalLoop=1;endArrow=block;endFill=1;strokeColor=#0000FF;" edge="1" parent="1" source="wls_pRcqSYBTs-uJ6IMm-7" target="wls_pRcqSYBTs-uJ6IMm-27">
          <mxGeometry relative="1" as="geometry" />
        </mxCell>
        <mxCell id="wls_pRcqSYBTs-uJ6IMm-45" value="" style="edgeStyle=orthogonalEdgeStyle;rounded=0;html=1;jettySize=auto;orthogonalLoop=1;endArrow=block;endFill=1;strokeColor=#0000FF;" edge="1" parent="1" source="wls_pRcqSYBTs-uJ6IMm-9" target="wls_pRcqSYBTs-uJ6IMm-29">
          <mxGeometry relative="1" as="geometry" />
        </mxCell>
        <mxCell id="wls_pRcqSYBTs-uJ6IMm-46" value="" style="edgeStyle=orthogonalEdgeStyle;rounded=0;html=1;jettySize=auto;orthogonalLoop=1;endArrow=block;endFill=1;strokeColor=#0000FF;" edge="1" parent="1" source="wls_pRcqSYBTs-uJ6IMm-11" target="wls_pRcqSYBTs-uJ6IMm-31">
          <mxGeometry relative="1" as="geometry" />
        </mxCell>
        <mxCell id="wls_pRcqSYBTs-uJ6IMm-47" value="" style="edgeStyle=orthogonalEdgeStyle;rounded=0;html=1;jettySize=auto;orthogonalLoop=1;endArrow=block;endFill=1;strokeColor=#0000FF;" edge="1" parent="1" source="wls_pRcqSYBTs-uJ6IMm-13" target="wls_pRcqSYBTs-uJ6IMm-33">
          <mxGeometry relative="1" as="geometry" />
        </mxCell>
        <mxCell id="wls_pRcqSYBTs-uJ6IMm-48" value="" style="edgeStyle=orthogonalEdgeStyle;rounded=0;html=1;jettySize=auto;orthogonalLoop=1;endArrow=block;endFill=1;strokeColor=#0000FF;" edge="1" parent="1" source="wls_pRcqSYBTs-uJ6IMm-15" target="wls_pRcqSYBTs-uJ6IMm-35">
          <mxGeometry relative="1" as="geometry" />
        </mxCell>
        <mxCell id="wls_pRcqSYBTs-uJ6IMm-49" value="" style="edgeStyle=orthogonalEdgeStyle;rounded=0;html=1;jettySize=auto;orthogonalLoop=1;endArrow=block;endFill=1;strokeColor=#0000FF;" edge="1" parent="1" source="wls_pRcqSYBTs-uJ6IMm-17" target="wls_pRcqSYBTs-uJ6IMm-37">
          <mxGeometry relative="1" as="geometry" />
        </mxCell>
        <mxCell id="wls_pRcqSYBTs-uJ6IMm-50" value="" style="edgeStyle=orthogonalEdgeStyle;rounded=0;html=1;jettySize=auto;orthogonalLoop=1;endArrow=block;endFill=1;strokeColor=#0000FF;" edge="1" parent="1" source="wls_pRcqSYBTs-uJ6IMm-19" target="wls_pRcqSYBTs-uJ6IMm-39">
          <mxGeometry relative="1" as="geometry" />
        </mxCell>
      </root>
    </mxGraphModel>
  </diagram>
  <diagram id="2F3j8-WdZ7mF5-zXozLu" name="Performs">
    <mxGraphModel dx="1895" dy="958" grid="1" gridSize="10" guides="1" tooltips="1" connect="1" arrows="1" fold="1" page="1" pageScale="1" pageWidth="2339" pageHeight="3300" math="0" shadow="0">
      <root>
        <mxCell id="0" />
        <mxCell id="1" parent="0" />
        <mxCell id="OuG2WLXK4pr2iF8TKei7-1" value="Drake" style="rounded=0;whiteSpace=wrap;html=1;shape=ellipse;fillColor=#FF6666;strokeColor=#000000;fontSize=12;" vertex="1" parent="1">
          <mxGeometry x="150" y="750" width="80" height="80" as="geometry" />
        </mxCell>
        <mxCell id="OuG2WLXK4pr2iF8TKei7-2" value="1" style="rounded=0;whiteSpace=wrap;html=1;shape=ellipse;fillColor=#FFFFFF;strokeColor=#000000;fontSize=10;" vertex="1" parent="1">
          <mxGeometry x="180" y="750" width="20" height="20" as="geometry" />
        </mxCell>
        <mxCell id="OuG2WLXK4pr2iF8TKei7-3" value="Travis Scott" style="rounded=0;whiteSpace=wrap;html=1;shape=ellipse;fillColor=#FF6666;strokeColor=#000000;fontSize=12;" vertex="1" parent="1">
          <mxGeometry x="150" y="160" width="80" height="80" as="geometry" />
        </mxCell>
        <mxCell id="OuG2WLXK4pr2iF8TKei7-4" value="2" style="rounded=0;whiteSpace=wrap;html=1;shape=ellipse;fillColor=#FFFFFF;strokeColor=#000000;fontSize=10;" vertex="1" parent="1">
          <mxGeometry x="180" y="160" width="20" height="20" as="geometry" />
        </mxCell>
        <mxCell id="OuG2WLXK4pr2iF8TKei7-5" value="Kendrick Lamar" style="rounded=0;whiteSpace=wrap;html=1;shape=ellipse;fillColor=#FF6666;strokeColor=#000000;fontSize=12;" vertex="1" parent="1">
          <mxGeometry x="300" y="220" width="80" height="80" as="geometry" />
        </mxCell>
        <mxCell id="OuG2WLXK4pr2iF8TKei7-6" value="3" style="rounded=0;whiteSpace=wrap;html=1;shape=ellipse;fillColor=#FFFFFF;strokeColor=#000000;fontSize=10;" vertex="1" parent="1">
          <mxGeometry x="330" y="220" width="20" height="20" as="geometry" />
        </mxCell>
        <mxCell id="OuG2WLXK4pr2iF8TKei7-7" value="Cardi B" style="rounded=0;whiteSpace=wrap;html=1;shape=ellipse;fillColor=#FF6666;strokeColor=#000000;fontSize=12;" vertex="1" parent="1">
          <mxGeometry x="400" y="220" width="80" height="80" as="geometry" />
        </mxCell>
        <mxCell id="OuG2WLXK4pr2iF8TKei7-8" value="4" style="rounded=0;whiteSpace=wrap;html=1;shape=ellipse;fillColor=#FFFFFF;strokeColor=#000000;fontSize=10;" vertex="1" parent="1">
          <mxGeometry x="430" y="220" width="20" height="20" as="geometry" />
        </mxCell>
        <mxCell id="OuG2WLXK4pr2iF8TKei7-9" value="Megan Thee Stallion" style="rounded=0;whiteSpace=wrap;html=1;shape=ellipse;fillColor=#FF6666;strokeColor=#000000;fontSize=12;" vertex="1" parent="1">
          <mxGeometry x="350" y="660" width="80" height="80" as="geometry" />
        </mxCell>
        <mxCell id="OuG2WLXK4pr2iF8TKei7-10" value="5" style="rounded=0;whiteSpace=wrap;html=1;shape=ellipse;fillColor=#FFFFFF;strokeColor=#000000;fontSize=10;" vertex="1" parent="1">
          <mxGeometry x="380" y="660" width="20" height="20" as="geometry" />
        </mxCell>
        <mxCell id="OuG2WLXK4pr2iF8TKei7-11" value="Doja Cat" style="rounded=0;whiteSpace=wrap;html=1;shape=ellipse;fillColor=#FF6666;strokeColor=#000000;fontSize=12;" vertex="1" parent="1">
          <mxGeometry x="560" y="80" width="80" height="80" as="geometry" />
        </mxCell>
        <mxCell id="OuG2WLXK4pr2iF8TKei7-12" value="6" style="rounded=0;whiteSpace=wrap;html=1;shape=ellipse;fillColor=#FFFFFF;strokeColor=#000000;fontSize=10;" vertex="1" parent="1">
          <mxGeometry x="590" y="80" width="20" height="20" as="geometry" />
        </mxCell>
        <mxCell id="OuG2WLXK4pr2iF8TKei7-13" value="J. Cole" style="rounded=0;whiteSpace=wrap;html=1;shape=ellipse;fillColor=#FF6666;strokeColor=#000000;fontSize=12;" vertex="1" parent="1">
          <mxGeometry x="750" y="200" width="80" height="80" as="geometry" />
        </mxCell>
        <mxCell id="OuG2WLXK4pr2iF8TKei7-14" value="7" style="rounded=0;whiteSpace=wrap;html=1;shape=ellipse;fillColor=#FFFFFF;strokeColor=#000000;fontSize=10;" vertex="1" parent="1">
          <mxGeometry x="780" y="200" width="20" height="20" as="geometry" />
        </mxCell>
        <mxCell id="OuG2WLXK4pr2iF8TKei7-15" value="Post Malone" style="rounded=0;whiteSpace=wrap;html=1;shape=ellipse;fillColor=#FF6666;strokeColor=#000000;fontSize=12;" vertex="1" parent="1">
          <mxGeometry x="800" y="610" width="80" height="80" as="geometry" />
        </mxCell>
        <mxCell id="OuG2WLXK4pr2iF8TKei7-16" value="8" style="rounded=0;whiteSpace=wrap;html=1;shape=ellipse;fillColor=#FFFFFF;strokeColor=#000000;fontSize=10;" vertex="1" parent="1">
          <mxGeometry x="830" y="610" width="20" height="20" as="geometry" />
        </mxCell>
        <mxCell id="OuG2WLXK4pr2iF8TKei7-17" value="Lil Baby" style="rounded=0;whiteSpace=wrap;html=1;shape=ellipse;fillColor=#FF6666;strokeColor=#000000;fontSize=12;" vertex="1" parent="1">
          <mxGeometry x="900" y="100" width="80" height="80" as="geometry" />
        </mxCell>
        <mxCell id="OuG2WLXK4pr2iF8TKei7-18" value="9" style="rounded=0;whiteSpace=wrap;html=1;shape=ellipse;fillColor=#FFFFFF;strokeColor=#000000;fontSize=10;" vertex="1" parent="1">
          <mxGeometry x="930" y="100" width="20" height="20" as="geometry" />
        </mxCell>
        <mxCell id="OuG2WLXK4pr2iF8TKei7-19" value="Nicki Minaj" style="rounded=0;whiteSpace=wrap;html=1;shape=ellipse;fillColor=#FF6666;strokeColor=#000000;fontSize=12;" vertex="1" parent="1">
          <mxGeometry x="1000" y="100" width="80" height="80" as="geometry" />
        </mxCell>
        <mxCell id="OuG2WLXK4pr2iF8TKei7-20" value="10" style="rounded=0;whiteSpace=wrap;html=1;shape=ellipse;fillColor=#FFFFFF;strokeColor=#000000;fontSize=10;" vertex="1" parent="1">
          <mxGeometry x="1030" y="100" width="20" height="20" as="geometry" />
        </mxCell>
        <mxCell id="OuG2WLXK4pr2iF8TKei7-21" value="Gods Plan" style="rounded=0;whiteSpace=wrap;html=1;shape=hexagon;fillColor=#66FF66;strokeColor=#000000;fontSize=12;" vertex="1" parent="1">
          <mxGeometry x="100" y="400" width="80" height="80" as="geometry" />
        </mxCell>
        <mxCell id="OuG2WLXK4pr2iF8TKei7-22" value="1" style="rounded=0;whiteSpace=wrap;html=1;shape=ellipse;fillColor=#FFFFFF;strokeColor=#000000;fontSize=10;" vertex="1" parent="1">
          <mxGeometry x="140" y="400" width="20" height="20" as="geometry" />
        </mxCell>
        <mxCell id="OuG2WLXK4pr2iF8TKei7-23" value="Sicko Mode" style="rounded=0;whiteSpace=wrap;html=1;shape=hexagon;fillColor=#66FF66;strokeColor=#000000;fontSize=12;" vertex="1" parent="1">
          <mxGeometry x="200" y="400" width="80" height="80" as="geometry" />
        </mxCell>
        <mxCell id="OuG2WLXK4pr2iF8TKei7-24" value="2" style="rounded=0;whiteSpace=wrap;html=1;shape=ellipse;fillColor=#FFFFFF;strokeColor=#000000;fontSize=10;" vertex="1" parent="1">
          <mxGeometry x="240" y="400" width="20" height="20" as="geometry" />
        </mxCell>
        <mxCell id="OuG2WLXK4pr2iF8TKei7-25" value="HUMBLE." style="rounded=0;whiteSpace=wrap;html=1;shape=hexagon;fillColor=#66FF66;strokeColor=#000000;fontSize=12;" vertex="1" parent="1">
          <mxGeometry x="300" y="400" width="80" height="80" as="geometry" />
        </mxCell>
        <mxCell id="OuG2WLXK4pr2iF8TKei7-26" value="3" style="rounded=0;whiteSpace=wrap;html=1;shape=ellipse;fillColor=#FFFFFF;strokeColor=#000000;fontSize=10;" vertex="1" parent="1">
          <mxGeometry x="340" y="400" width="20" height="20" as="geometry" />
        </mxCell>
        <mxCell id="OuG2WLXK4pr2iF8TKei7-27" value="Bodak Yellow" style="rounded=0;whiteSpace=wrap;html=1;shape=hexagon;fillColor=#66FF66;strokeColor=#000000;fontSize=12;" vertex="1" parent="1">
          <mxGeometry x="400" y="400" width="80" height="80" as="geometry" />
        </mxCell>
        <mxCell id="OuG2WLXK4pr2iF8TKei7-28" value="4" style="rounded=0;whiteSpace=wrap;html=1;shape=ellipse;fillColor=#FFFFFF;strokeColor=#000000;fontSize=10;" vertex="1" parent="1">
          <mxGeometry x="440" y="400" width="20" height="20" as="geometry" />
        </mxCell>
        <mxCell id="OuG2WLXK4pr2iF8TKei7-29" value="Savage" style="rounded=0;whiteSpace=wrap;html=1;shape=hexagon;fillColor=#66FF66;strokeColor=#000000;fontSize=12;" vertex="1" parent="1">
          <mxGeometry x="500" y="400" width="80" height="80" as="geometry" />
        </mxCell>
        <mxCell id="OuG2WLXK4pr2iF8TKei7-30" value="5" style="rounded=0;whiteSpace=wrap;html=1;shape=ellipse;fillColor=#FFFFFF;strokeColor=#000000;fontSize=10;" vertex="1" parent="1">
          <mxGeometry x="540" y="400" width="20" height="20" as="geometry" />
        </mxCell>
        <mxCell id="OuG2WLXK4pr2iF8TKei7-31" value="Kiss Me More" style="rounded=0;whiteSpace=wrap;html=1;shape=hexagon;fillColor=#66FF66;strokeColor=#000000;fontSize=12;" vertex="1" parent="1">
          <mxGeometry x="600" y="400" width="80" height="80" as="geometry" />
        </mxCell>
        <mxCell id="OuG2WLXK4pr2iF8TKei7-32" value="6" style="rounded=0;whiteSpace=wrap;html=1;shape=ellipse;fillColor=#FFFFFF;strokeColor=#000000;fontSize=10;" vertex="1" parent="1">
          <mxGeometry x="640" y="400" width="20" height="20" as="geometry" />
        </mxCell>
        <mxCell id="OuG2WLXK4pr2iF8TKei7-33" value="Middle Child" style="rounded=0;whiteSpace=wrap;html=1;shape=hexagon;fillColor=#66FF66;strokeColor=#000000;fontSize=12;" vertex="1" parent="1">
          <mxGeometry x="700" y="400" width="80" height="80" as="geometry" />
        </mxCell>
        <mxCell id="OuG2WLXK4pr2iF8TKei7-34" value="7" style="rounded=0;whiteSpace=wrap;html=1;shape=ellipse;fillColor=#FFFFFF;strokeColor=#000000;fontSize=10;" vertex="1" parent="1">
          <mxGeometry x="740" y="400" width="20" height="20" as="geometry" />
        </mxCell>
        <mxCell id="OuG2WLXK4pr2iF8TKei7-35" value="Circles" style="rounded=0;whiteSpace=wrap;html=1;shape=hexagon;fillColor=#66FF66;strokeColor=#000000;fontSize=12;" vertex="1" parent="1">
          <mxGeometry x="800" y="400" width="80" height="80" as="geometry" />
        </mxCell>
        <mxCell id="OuG2WLXK4pr2iF8TKei7-36" value="8" style="rounded=0;whiteSpace=wrap;html=1;shape=ellipse;fillColor=#FFFFFF;strokeColor=#000000;fontSize=10;" vertex="1" parent="1">
          <mxGeometry x="840" y="400" width="20" height="20" as="geometry" />
        </mxCell>
        <mxCell id="OuG2WLXK4pr2iF8TKei7-37" value="Woah" style="rounded=0;whiteSpace=wrap;html=1;shape=hexagon;fillColor=#66FF66;strokeColor=#000000;fontSize=12;" vertex="1" parent="1">
          <mxGeometry x="900" y="400" width="80" height="80" as="geometry" />
        </mxCell>
        <mxCell id="OuG2WLXK4pr2iF8TKei7-38" value="9" style="rounded=0;whiteSpace=wrap;html=1;shape=ellipse;fillColor=#FFFFFF;strokeColor=#000000;fontSize=10;" vertex="1" parent="1">
          <mxGeometry x="940" y="400" width="20" height="20" as="geometry" />
        </mxCell>
        <mxCell id="OuG2WLXK4pr2iF8TKei7-39" value="Super Bass" style="rounded=0;whiteSpace=wrap;html=1;shape=hexagon;fillColor=#66FF66;strokeColor=#000000;fontSize=12;" vertex="1" parent="1">
          <mxGeometry x="1000" y="400" width="80" height="80" as="geometry" />
        </mxCell>
        <mxCell id="OuG2WLXK4pr2iF8TKei7-40" value="10" style="rounded=0;whiteSpace=wrap;html=1;shape=ellipse;fillColor=#FFFFFF;strokeColor=#000000;fontSize=10;" vertex="1" parent="1">
          <mxGeometry x="1040" y="400" width="20" height="20" as="geometry" />
        </mxCell>
        <mxCell id="OuG2WLXK4pr2iF8TKei7-41" value="2018" style="edgeStyle=orthogonalEdgeStyle;rounded=0;html=1;jettySize=auto;orthogonalLoop=1;endArrow=block;endFill=1;strokeColor=#0000FF;fontSize=10;" edge="1" parent="1" source="OuG2WLXK4pr2iF8TKei7-1" target="OuG2WLXK4pr2iF8TKei7-21">
          <mxGeometry relative="1" as="geometry" />
        </mxCell>
        <mxCell id="OuG2WLXK4pr2iF8TKei7-42" value="2018" style="edgeStyle=orthogonalEdgeStyle;rounded=0;html=1;jettySize=auto;orthogonalLoop=1;endArrow=block;endFill=1;strokeColor=#0000FF;fontSize=10;" edge="1" parent="1" source="OuG2WLXK4pr2iF8TKei7-3" target="OuG2WLXK4pr2iF8TKei7-23">
          <mxGeometry relative="1" as="geometry" />
        </mxCell>
        <mxCell id="OuG2WLXK4pr2iF8TKei7-43" value="2017" style="edgeStyle=orthogonalEdgeStyle;rounded=0;html=1;jettySize=auto;orthogonalLoop=1;endArrow=block;endFill=1;strokeColor=#0000FF;fontSize=10;" edge="1" parent="1" source="OuG2WLXK4pr2iF8TKei7-5" target="OuG2WLXK4pr2iF8TKei7-25">
          <mxGeometry relative="1" as="geometry" />
        </mxCell>
        <mxCell id="OuG2WLXK4pr2iF8TKei7-44" value="2017" style="edgeStyle=orthogonalEdgeStyle;rounded=0;html=1;jettySize=auto;orthogonalLoop=1;endArrow=block;endFill=1;strokeColor=#0000FF;fontSize=10;" edge="1" parent="1" source="OuG2WLXK4pr2iF8TKei7-7" target="OuG2WLXK4pr2iF8TKei7-27">
          <mxGeometry relative="1" as="geometry" />
        </mxCell>
        <mxCell id="OuG2WLXK4pr2iF8TKei7-45" value="2020" style="edgeStyle=orthogonalEdgeStyle;rounded=0;html=1;jettySize=auto;orthogonalLoop=1;endArrow=block;endFill=1;strokeColor=#0000FF;fontSize=10;" edge="1" parent="1" source="OuG2WLXK4pr2iF8TKei7-9" target="OuG2WLXK4pr2iF8TKei7-29">
          <mxGeometry relative="1" as="geometry" />
        </mxCell>
        <mxCell id="OuG2WLXK4pr2iF8TKei7-46" value="2021" style="edgeStyle=orthogonalEdgeStyle;rounded=0;html=1;jettySize=auto;orthogonalLoop=1;endArrow=block;endFill=1;strokeColor=#0000FF;fontSize=10;" edge="1" parent="1" source="OuG2WLXK4pr2iF8TKei7-11" target="OuG2WLXK4pr2iF8TKei7-31">
          <mxGeometry relative="1" as="geometry" />
        </mxCell>
        <mxCell id="OuG2WLXK4pr2iF8TKei7-47" value="2019" style="edgeStyle=orthogonalEdgeStyle;rounded=0;html=1;jettySize=auto;orthogonalLoop=1;endArrow=block;endFill=1;strokeColor=#0000FF;fontSize=10;" edge="1" parent="1" source="OuG2WLXK4pr2iF8TKei7-13" target="OuG2WLXK4pr2iF8TKei7-33">
          <mxGeometry relative="1" as="geometry" />
        </mxCell>
        <mxCell id="OuG2WLXK4pr2iF8TKei7-48" value="2019" style="edgeStyle=orthogonalEdgeStyle;rounded=0;html=1;jettySize=auto;orthogonalLoop=1;endArrow=block;endFill=1;strokeColor=#0000FF;fontSize=10;" edge="1" parent="1" source="OuG2WLXK4pr2iF8TKei7-15" target="OuG2WLXK4pr2iF8TKei7-35">
          <mxGeometry relative="1" as="geometry" />
        </mxCell>
        <mxCell id="OuG2WLXK4pr2iF8TKei7-49" value="2020" style="edgeStyle=orthogonalEdgeStyle;rounded=0;html=1;jettySize=auto;orthogonalLoop=1;endArrow=block;endFill=1;strokeColor=#0000FF;fontSize=10;" edge="1" parent="1" source="OuG2WLXK4pr2iF8TKei7-17" target="OuG2WLXK4pr2iF8TKei7-37">
          <mxGeometry relative="1" as="geometry" />
        </mxCell>
        <mxCell id="OuG2WLXK4pr2iF8TKei7-50" value="2011" style="edgeStyle=orthogonalEdgeStyle;rounded=0;html=1;jettySize=auto;orthogonalLoop=1;endArrow=block;endFill=1;strokeColor=#0000FF;fontSize=10;" edge="1" parent="1" source="OuG2WLXK4pr2iF8TKei7-19" target="OuG2WLXK4pr2iF8TKei7-39">
          <mxGeometry relative="1" as="geometry" />
        </mxCell>
        <mxCell id="OuG2WLXK4pr2iF8TKei7-51" value="2018" style="edgeStyle=orthogonalEdgeStyle;rounded=0;html=1;jettySize=auto;orthogonalLoop=1;endArrow=block;endFill=1;strokeColor=#0000FF;fontSize=10;" edge="1" parent="1" source="OuG2WLXK4pr2iF8TKei7-1" target="OuG2WLXK4pr2iF8TKei7-23">
          <mxGeometry relative="1" as="geometry" />
        </mxCell>
        <mxCell id="OuG2WLXK4pr2iF8TKei7-52" value="2018" style="edgeStyle=orthogonalEdgeStyle;rounded=0;html=1;jettySize=auto;orthogonalLoop=1;endArrow=block;endFill=1;strokeColor=#0000FF;fontSize=10;" edge="1" parent="1" source="OuG2WLXK4pr2iF8TKei7-3" target="OuG2WLXK4pr2iF8TKei7-21">
          <mxGeometry relative="1" as="geometry" />
        </mxCell>
        <mxCell id="OuG2WLXK4pr2iF8TKei7-53" value="2020" style="edgeStyle=orthogonalEdgeStyle;rounded=0;html=1;jettySize=auto;orthogonalLoop=1;endArrow=block;endFill=1;strokeColor=#0000FF;fontSize=10;" edge="1" parent="1" source="OuG2WLXK4pr2iF8TKei7-9" target="OuG2WLXK4pr2iF8TKei7-21">
          <mxGeometry relative="1" as="geometry" />
        </mxCell>
        <mxCell id="OuG2WLXK4pr2iF8TKei7-54" value="2021" style="edgeStyle=orthogonalEdgeStyle;rounded=0;html=1;jettySize=auto;orthogonalLoop=1;endArrow=block;endFill=1;strokeColor=#0000FF;fontSize=10;" edge="1" parent="1" source="OuG2WLXK4pr2iF8TKei7-11" target="OuG2WLXK4pr2iF8TKei7-29">
          <mxGeometry relative="1" as="geometry" />
        </mxCell>
        <mxCell id="OuG2WLXK4pr2iF8TKei7-55" value="2019" style="edgeStyle=orthogonalEdgeStyle;rounded=0;html=1;jettySize=auto;orthogonalLoop=1;endArrow=block;endFill=1;strokeColor=#0000FF;fontSize=10;" edge="1" parent="1" source="OuG2WLXK4pr2iF8TKei7-13" target="OuG2WLXK4pr2iF8TKei7-35">
          <mxGeometry relative="1" as="geometry" />
        </mxCell>
      </root>
    </mxGraphModel>
  </diagram>
  <diagram id="c_AhJrSSKywE_1GQiuYQ" name="Collabs">
    <mxGraphModel dx="1042" dy="527" grid="1" gridSize="10" guides="1" tooltips="1" connect="1" arrows="1" fold="1" page="1" pageScale="1" pageWidth="2339" pageHeight="3300" math="0" shadow="0">
      <root>
        <mxCell id="0" />
        <mxCell id="1" parent="0" />
        <mxCell id="m2h6T6LhY-ElK1hGhz4P-1" value="Drake" style="rounded=0;whiteSpace=wrap;html=1;shape=ellipse;fillColor=#FF6666;strokeColor=#000000;fontSize=12;" vertex="1" parent="1">
          <mxGeometry x="100" y="100" width="80" height="80" as="geometry" />
        </mxCell>
        <mxCell id="m2h6T6LhY-ElK1hGhz4P-2" value="1" style="rounded=0;whiteSpace=wrap;html=1;shape=ellipse;fillColor=#FFFFFF;strokeColor=#000000;fontSize=10;" vertex="1" parent="1">
          <mxGeometry x="140" y="100" width="20" height="20" as="geometry" />
        </mxCell>
        <mxCell id="m2h6T6LhY-ElK1hGhz4P-3" value="Travis Scott" style="rounded=0;whiteSpace=wrap;html=1;shape=ellipse;fillColor=#FF6666;strokeColor=#000000;fontSize=12;" vertex="1" parent="1">
          <mxGeometry x="250" y="150" width="80" height="80" as="geometry" />
        </mxCell>
        <mxCell id="m2h6T6LhY-ElK1hGhz4P-4" value="2" style="rounded=0;whiteSpace=wrap;html=1;shape=ellipse;fillColor=#FFFFFF;strokeColor=#000000;fontSize=10;" vertex="1" parent="1">
          <mxGeometry x="290" y="150" width="20" height="20" as="geometry" />
        </mxCell>
        <mxCell id="m2h6T6LhY-ElK1hGhz4P-5" value="Kendrick Lamar" style="rounded=0;whiteSpace=wrap;html=1;shape=ellipse;fillColor=#FF6666;strokeColor=#000000;fontSize=12;" vertex="1" parent="1">
          <mxGeometry x="400" y="100" width="80" height="80" as="geometry" />
        </mxCell>
        <mxCell id="m2h6T6LhY-ElK1hGhz4P-6" value="3" style="rounded=0;whiteSpace=wrap;html=1;shape=ellipse;fillColor=#FFFFFF;strokeColor=#000000;fontSize=10;" vertex="1" parent="1">
          <mxGeometry x="440" y="100" width="20" height="20" as="geometry" />
        </mxCell>
        <mxCell id="m2h6T6LhY-ElK1hGhz4P-7" value="Cardi B" style="rounded=0;whiteSpace=wrap;html=1;shape=ellipse;fillColor=#FF6666;strokeColor=#000000;fontSize=12;" vertex="1" parent="1">
          <mxGeometry x="300" y="250" width="80" height="80" as="geometry" />
        </mxCell>
        <mxCell id="m2h6T6LhY-ElK1hGhz4P-8" value="4" style="rounded=0;whiteSpace=wrap;html=1;shape=ellipse;fillColor=#FFFFFF;strokeColor=#000000;fontSize=10;" vertex="1" parent="1">
          <mxGeometry x="340" y="250" width="20" height="20" as="geometry" />
        </mxCell>
        <mxCell id="m2h6T6LhY-ElK1hGhz4P-9" value="Megan Thee Stallion" style="rounded=0;whiteSpace=wrap;html=1;shape=ellipse;fillColor=#FF6666;strokeColor=#000000;fontSize=12;" vertex="1" parent="1">
          <mxGeometry x="450" y="200" width="80" height="80" as="geometry" />
        </mxCell>
        <mxCell id="m2h6T6LhY-ElK1hGhz4P-10" value="5" style="rounded=0;whiteSpace=wrap;html=1;shape=ellipse;fillColor=#FFFFFF;strokeColor=#000000;fontSize=10;" vertex="1" parent="1">
          <mxGeometry x="490" y="200" width="20" height="20" as="geometry" />
        </mxCell>
        <mxCell id="m2h6T6LhY-ElK1hGhz4P-11" value="Doja Cat" style="rounded=0;whiteSpace=wrap;html=1;shape=ellipse;fillColor=#FF6666;strokeColor=#000000;fontSize=12;" vertex="1" parent="1">
          <mxGeometry x="200" y="350" width="80" height="80" as="geometry" />
        </mxCell>
        <mxCell id="m2h6T6LhY-ElK1hGhz4P-12" value="6" style="rounded=0;whiteSpace=wrap;html=1;shape=ellipse;fillColor=#FFFFFF;strokeColor=#000000;fontSize=10;" vertex="1" parent="1">
          <mxGeometry x="240" y="350" width="20" height="20" as="geometry" />
        </mxCell>
        <mxCell id="m2h6T6LhY-ElK1hGhz4P-13" value="J. Cole" style="rounded=0;whiteSpace=wrap;html=1;shape=ellipse;fillColor=#FF6666;strokeColor=#000000;fontSize=12;" vertex="1" parent="1">
          <mxGeometry x="350" y="400" width="80" height="80" as="geometry" />
        </mxCell>
        <mxCell id="m2h6T6LhY-ElK1hGhz4P-14" value="7" style="rounded=0;whiteSpace=wrap;html=1;shape=ellipse;fillColor=#FFFFFF;strokeColor=#000000;fontSize=10;" vertex="1" parent="1">
          <mxGeometry x="390" y="400" width="20" height="20" as="geometry" />
        </mxCell>
        <mxCell id="m2h6T6LhY-ElK1hGhz4P-15" value="Post Malone" style="rounded=0;whiteSpace=wrap;html=1;shape=ellipse;fillColor=#FF6666;strokeColor=#000000;fontSize=12;" vertex="1" parent="1">
          <mxGeometry x="500" y="350" width="80" height="80" as="geometry" />
        </mxCell>
        <mxCell id="m2h6T6LhY-ElK1hGhz4P-16" value="8" style="rounded=0;whiteSpace=wrap;html=1;shape=ellipse;fillColor=#FFFFFF;strokeColor=#000000;fontSize=10;" vertex="1" parent="1">
          <mxGeometry x="540" y="350" width="20" height="20" as="geometry" />
        </mxCell>
        <mxCell id="m2h6T6LhY-ElK1hGhz4P-17" value="Lil Baby" style="rounded=0;whiteSpace=wrap;html=1;shape=ellipse;fillColor=#FF6666;strokeColor=#000000;fontSize=12;" vertex="1" parent="1">
          <mxGeometry x="600" y="250" width="80" height="80" as="geometry" />
        </mxCell>
        <mxCell id="m2h6T6LhY-ElK1hGhz4P-18" value="9" style="rounded=0;whiteSpace=wrap;html=1;shape=ellipse;fillColor=#FFFFFF;strokeColor=#000000;fontSize=10;" vertex="1" parent="1">
          <mxGeometry x="640" y="250" width="20" height="20" as="geometry" />
        </mxCell>
        <mxCell id="m2h6T6LhY-ElK1hGhz4P-19" value="Nicki Minaj" style="rounded=0;whiteSpace=wrap;html=1;shape=ellipse;fillColor=#FF6666;strokeColor=#000000;fontSize=12;" vertex="1" parent="1">
          <mxGeometry x="550" y="450" width="80" height="80" as="geometry" />
        </mxCell>
        <mxCell id="m2h6T6LhY-ElK1hGhz4P-20" value="10" style="rounded=0;whiteSpace=wrap;html=1;shape=ellipse;fillColor=#FFFFFF;strokeColor=#000000;fontSize=10;" vertex="1" parent="1">
          <mxGeometry x="590" y="450" width="20" height="20" as="geometry" />
        </mxCell>
        <mxCell id="m2h6T6LhY-ElK1hGhz4P-21" value="" style="edgeStyle=orthogonalEdgeStyle;rounded=0;html=1;jettySize=auto;orthogonalLoop=1;endArrow=block;endFill=1;strokeColor=#0000FF;" edge="1" parent="1" source="m2h6T6LhY-ElK1hGhz4P-1" target="m2h6T6LhY-ElK1hGhz4P-3">
          <mxGeometry relative="1" as="geometry" />
        </mxCell>
        <mxCell id="m2h6T6LhY-ElK1hGhz4P-22" value="" style="edgeStyle=orthogonalEdgeStyle;rounded=0;html=1;jettySize=auto;orthogonalLoop=1;endArrow=block;endFill=1;strokeColor=#0000FF;" edge="1" parent="1" source="m2h6T6LhY-ElK1hGhz4P-7" target="m2h6T6LhY-ElK1hGhz4P-5">
          <mxGeometry relative="1" as="geometry" />
        </mxCell>
        <mxCell id="m2h6T6LhY-ElK1hGhz4P-23" value="" style="edgeStyle=orthogonalEdgeStyle;rounded=0;html=1;jettySize=auto;orthogonalLoop=1;endArrow=block;endFill=1;strokeColor=#0000FF;" edge="1" parent="1" source="m2h6T6LhY-ElK1hGhz4P-11" target="m2h6T6LhY-ElK1hGhz4P-3">
          <mxGeometry relative="1" as="geometry" />
        </mxCell>
        <mxCell id="m2h6T6LhY-ElK1hGhz4P-24" value="" style="edgeStyle=orthogonalEdgeStyle;rounded=0;html=1;jettySize=auto;orthogonalLoop=1;endArrow=block;endFill=1;strokeColor=#0000FF;" edge="1" parent="1" source="m2h6T6LhY-ElK1hGhz4P-1" target="m2h6T6LhY-ElK1hGhz4P-5">
          <mxGeometry relative="1" as="geometry" />
        </mxCell>
        <mxCell id="m2h6T6LhY-ElK1hGhz4P-25" value="" style="edgeStyle=orthogonalEdgeStyle;rounded=0;html=1;jettySize=auto;orthogonalLoop=1;endArrow=block;endFill=1;strokeColor=#0000FF;" edge="1" parent="1" source="m2h6T6LhY-ElK1hGhz4P-3" target="m2h6T6LhY-ElK1hGhz4P-7">
          <mxGeometry relative="1" as="geometry" />
        </mxCell>
        <mxCell id="m2h6T6LhY-ElK1hGhz4P-26" value="" style="edgeStyle=orthogonalEdgeStyle;rounded=0;html=1;jettySize=auto;orthogonalLoop=1;endArrow=block;endFill=1;strokeColor=#0000FF;" edge="1" parent="1" source="m2h6T6LhY-ElK1hGhz4P-5" target="m2h6T6LhY-ElK1hGhz4P-9">
          <mxGeometry relative="1" as="geometry" />
        </mxCell>
        <mxCell id="m2h6T6LhY-ElK1hGhz4P-27" value="" style="edgeStyle=orthogonalEdgeStyle;rounded=0;html=1;jettySize=auto;orthogonalLoop=1;endArrow=block;endFill=1;strokeColor=#0000FF;" edge="1" parent="1" source="m2h6T6LhY-ElK1hGhz4P-7" target="m2h6T6LhY-ElK1hGhz4P-11">
          <mxGeometry relative="1" as="geometry" />
        </mxCell>
        <mxCell id="m2h6T6LhY-ElK1hGhz4P-28" value="" style="edgeStyle=orthogonalEdgeStyle;rounded=0;html=1;jettySize=auto;orthogonalLoop=1;endArrow=block;endFill=1;strokeColor=#0000FF;" edge="1" parent="1" source="m2h6T6LhY-ElK1hGhz4P-9" target="m2h6T6LhY-ElK1hGhz4P-13">
          <mxGeometry relative="1" as="geometry" />
        </mxCell>
        <mxCell id="m2h6T6LhY-ElK1hGhz4P-29" value="" style="edgeStyle=orthogonalEdgeStyle;rounded=0;html=1;jettySize=auto;orthogonalLoop=1;endArrow=block;endFill=1;strokeColor=#0000FF;" edge="1" parent="1" source="m2h6T6LhY-ElK1hGhz4P-11" target="m2h6T6LhY-ElK1hGhz4P-15">
          <mxGeometry relative="1" as="geometry" />
        </mxCell>
        <mxCell id="m2h6T6LhY-ElK1hGhz4P-30" value="" style="edgeStyle=orthogonalEdgeStyle;rounded=0;html=1;jettySize=auto;orthogonalLoop=1;endArrow=block;endFill=1;strokeColor=#0000FF;" edge="1" parent="1" source="m2h6T6LhY-ElK1hGhz4P-19" target="m2h6T6LhY-ElK1hGhz4P-7">
          <mxGeometry relative="1" as="geometry" />
        </mxCell>
        <mxCell id="m2h6T6LhY-ElK1hGhz4P-31" value="" style="edgeStyle=orthogonalEdgeStyle;rounded=0;html=1;jettySize=auto;orthogonalLoop=1;endArrow=block;endFill=1;strokeColor=#0000FF;" edge="1" parent="1" source="m2h6T6LhY-ElK1hGhz4P-3" target="m2h6T6LhY-ElK1hGhz4P-9">
          <mxGeometry relative="1" as="geometry" />
        </mxCell>
        <mxCell id="m2h6T6LhY-ElK1hGhz4P-32" value="" style="edgeStyle=orthogonalEdgeStyle;rounded=0;html=1;jettySize=auto;orthogonalLoop=1;endArrow=block;endFill=1;strokeColor=#0000FF;" edge="1" parent="1" source="m2h6T6LhY-ElK1hGhz4P-13" target="m2h6T6LhY-ElK1hGhz4P-17">
          <mxGeometry relative="1" as="geometry" />
        </mxCell>
        <mxCell id="m2h6T6LhY-ElK1hGhz4P-33" value="" style="edgeStyle=orthogonalEdgeStyle;rounded=0;html=1;jettySize=auto;orthogonalLoop=1;endArrow=block;endFill=1;strokeColor=#0000FF;" edge="1" parent="1" source="m2h6T6LhY-ElK1hGhz4P-15" target="m2h6T6LhY-ElK1hGhz4P-19">
          <mxGeometry relative="1" as="geometry" />
        </mxCell>
        <mxCell id="m2h6T6LhY-ElK1hGhz4P-34" value="" style="edgeStyle=orthogonalEdgeStyle;rounded=0;html=1;jettySize=auto;orthogonalLoop=1;endArrow=block;endFill=1;strokeColor=#0000FF;" edge="1" parent="1" source="m2h6T6LhY-ElK1hGhz4P-17" target="m2h6T6LhY-ElK1hGhz4P-19">
          <mxGeometry relative="1" as="geometry" />
        </mxCell>
      </root>
    </mxGraphModel>
  </diagram>
  <diagram id="O1TqbcHtKbRLcDgELhXq" name="RecordedIn">
    <mxGraphModel dx="1226" dy="620" grid="1" gridSize="10" guides="1" tooltips="1" connect="1" arrows="1" fold="1" page="1" pageScale="1" pageWidth="2339" pageHeight="3300" math="0" shadow="0">
      <root>
        <mxCell id="0" />
        <mxCell id="1" parent="0" />
        <mxCell id="o73PWUz0UViW3Uit44hD-1" value="Gods Plan" style="rounded=0;whiteSpace=wrap;html=1;shape=hexagon;fillColor=#66FF66;strokeColor=#000000;fontSize=12;" vertex="1" parent="1">
          <mxGeometry x="50" y="10" width="80" height="80" as="geometry" />
        </mxCell>
        <mxCell id="o73PWUz0UViW3Uit44hD-2" value="1" style="rounded=0;whiteSpace=wrap;html=1;shape=ellipse;fillColor=#FFFFFF;strokeColor=#000000;fontSize=10;" vertex="1" parent="1">
          <mxGeometry x="90" y="10" width="20" height="20" as="geometry" />
        </mxCell>
        <mxCell id="o73PWUz0UViW3Uit44hD-3" value="Sicko Mode" style="rounded=0;whiteSpace=wrap;html=1;shape=hexagon;fillColor=#66FF66;strokeColor=#000000;fontSize=12;" vertex="1" parent="1">
          <mxGeometry x="160" y="90" width="80" height="80" as="geometry" />
        </mxCell>
        <mxCell id="o73PWUz0UViW3Uit44hD-4" value="2" style="rounded=0;whiteSpace=wrap;html=1;shape=ellipse;fillColor=#FFFFFF;strokeColor=#000000;fontSize=10;" vertex="1" parent="1">
          <mxGeometry x="200" y="90" width="20" height="20" as="geometry" />
        </mxCell>
        <mxCell id="o73PWUz0UViW3Uit44hD-5" value="HUMBLE." style="rounded=0;whiteSpace=wrap;html=1;shape=hexagon;fillColor=#66FF66;strokeColor=#000000;fontSize=12;" vertex="1" parent="1">
          <mxGeometry x="200" y="620" width="80" height="80" as="geometry" />
        </mxCell>
        <mxCell id="o73PWUz0UViW3Uit44hD-6" value="3" style="rounded=0;whiteSpace=wrap;html=1;shape=ellipse;fillColor=#FFFFFF;strokeColor=#000000;fontSize=10;" vertex="1" parent="1">
          <mxGeometry x="240" y="620" width="20" height="20" as="geometry" />
        </mxCell>
        <mxCell id="o73PWUz0UViW3Uit44hD-7" value="Lose Yourself" style="rounded=0;whiteSpace=wrap;html=1;shape=hexagon;fillColor=#66FF66;strokeColor=#000000;fontSize=12;" vertex="1" parent="1">
          <mxGeometry x="400" y="500" width="80" height="80" as="geometry" />
        </mxCell>
        <mxCell id="o73PWUz0UViW3Uit44hD-8" value="4" style="rounded=0;whiteSpace=wrap;html=1;shape=ellipse;fillColor=#FFFFFF;strokeColor=#000000;fontSize=10;" vertex="1" parent="1">
          <mxGeometry x="440" y="500" width="20" height="20" as="geometry" />
        </mxCell>
        <mxCell id="o73PWUz0UViW3Uit44hD-9" value="Sad!" style="rounded=0;whiteSpace=wrap;html=1;shape=hexagon;fillColor=#66FF66;strokeColor=#000000;fontSize=12;" vertex="1" parent="1">
          <mxGeometry x="300" y="190" width="80" height="80" as="geometry" />
        </mxCell>
        <mxCell id="o73PWUz0UViW3Uit44hD-10" value="5" style="rounded=0;whiteSpace=wrap;html=1;shape=ellipse;fillColor=#FFFFFF;strokeColor=#000000;fontSize=10;" vertex="1" parent="1">
          <mxGeometry x="340" y="190" width="20" height="20" as="geometry" />
        </mxCell>
        <mxCell id="o73PWUz0UViW3Uit44hD-11" value="20 Min" style="rounded=0;whiteSpace=wrap;html=1;shape=hexagon;fillColor=#66FF66;strokeColor=#000000;fontSize=12;" vertex="1" parent="1">
          <mxGeometry x="400" y="100" width="80" height="80" as="geometry" />
        </mxCell>
        <mxCell id="o73PWUz0UViW3Uit44hD-12" value="6" style="rounded=0;whiteSpace=wrap;html=1;shape=ellipse;fillColor=#FFFFFF;strokeColor=#000000;fontSize=10;" vertex="1" parent="1">
          <mxGeometry x="440" y="100" width="20" height="20" as="geometry" />
        </mxCell>
        <mxCell id="o73PWUz0UViW3Uit44hD-13" value="Middle Child" style="rounded=0;whiteSpace=wrap;html=1;shape=hexagon;fillColor=#66FF66;strokeColor=#000000;fontSize=12;" vertex="1" parent="1">
          <mxGeometry x="500" y="580" width="80" height="80" as="geometry" />
        </mxCell>
        <mxCell id="o73PWUz0UViW3Uit44hD-14" value="7" style="rounded=0;whiteSpace=wrap;html=1;shape=ellipse;fillColor=#FFFFFF;strokeColor=#000000;fontSize=10;" vertex="1" parent="1">
          <mxGeometry x="540" y="580" width="20" height="20" as="geometry" />
        </mxCell>
        <mxCell id="o73PWUz0UViW3Uit44hD-15" value="Circles" style="rounded=0;whiteSpace=wrap;html=1;shape=hexagon;fillColor=#66FF66;strokeColor=#000000;fontSize=12;" vertex="1" parent="1">
          <mxGeometry x="600" y="100" width="80" height="80" as="geometry" />
        </mxCell>
        <mxCell id="o73PWUz0UViW3Uit44hD-16" value="8" style="rounded=0;whiteSpace=wrap;html=1;shape=ellipse;fillColor=#FFFFFF;strokeColor=#000000;fontSize=10;" vertex="1" parent="1">
          <mxGeometry x="640" y="100" width="20" height="20" as="geometry" />
        </mxCell>
        <mxCell id="o73PWUz0UViW3Uit44hD-17" value="Woah" style="rounded=0;whiteSpace=wrap;html=1;shape=hexagon;fillColor=#66FF66;strokeColor=#000000;fontSize=12;" vertex="1" parent="1">
          <mxGeometry x="700" y="110" width="80" height="80" as="geometry" />
        </mxCell>
        <mxCell id="o73PWUz0UViW3Uit44hD-18" value="9" style="rounded=0;whiteSpace=wrap;html=1;shape=ellipse;fillColor=#FFFFFF;strokeColor=#000000;fontSize=10;" vertex="1" parent="1">
          <mxGeometry x="740" y="110" width="20" height="20" as="geometry" />
        </mxCell>
        <mxCell id="o73PWUz0UViW3Uit44hD-19" value="Evil Jordan" style="rounded=0;whiteSpace=wrap;html=1;shape=hexagon;fillColor=#66FF66;strokeColor=#000000;fontSize=12;" vertex="1" parent="1">
          <mxGeometry x="800" y="660" width="80" height="80" as="geometry" />
        </mxCell>
        <mxCell id="o73PWUz0UViW3Uit44hD-20" value="10" style="rounded=0;whiteSpace=wrap;html=1;shape=ellipse;fillColor=#FFFFFF;strokeColor=#000000;fontSize=10;" vertex="1" parent="1">
          <mxGeometry x="840" y="660" width="20" height="20" as="geometry" />
        </mxCell>
        <mxCell id="o73PWUz0UViW3Uit44hD-21" value="Hit Factory" style="rounded=0;whiteSpace=wrap;html=1;shape=rectangle;fillColor=#6666FF;strokeColor=#000000;fontSize=12;" vertex="1" parent="1">
          <mxGeometry x="100" y="400" width="80" height="60" as="geometry" />
        </mxCell>
        <mxCell id="o73PWUz0UViW3Uit44hD-22" value="1" style="rounded=0;whiteSpace=wrap;html=1;shape=ellipse;fillColor=#FFFFFF;strokeColor=#000000;fontSize=10;" vertex="1" parent="1">
          <mxGeometry x="140" y="400" width="20" height="20" as="geometry" />
        </mxCell>
        <mxCell id="o73PWUz0UViW3Uit44hD-23" value="Electric Lady" style="rounded=0;whiteSpace=wrap;html=1;shape=rectangle;fillColor=#6666FF;strokeColor=#000000;fontSize=12;" vertex="1" parent="1">
          <mxGeometry x="200" y="400" width="80" height="60" as="geometry" />
        </mxCell>
        <mxCell id="o73PWUz0UViW3Uit44hD-24" value="2" style="rounded=0;whiteSpace=wrap;html=1;shape=ellipse;fillColor=#FFFFFF;strokeColor=#000000;fontSize=10;" vertex="1" parent="1">
          <mxGeometry x="240" y="400" width="20" height="20" as="geometry" />
        </mxCell>
        <mxCell id="o73PWUz0UViW3Uit44hD-25" value="Abbey Road" style="rounded=0;whiteSpace=wrap;html=1;shape=rectangle;fillColor=#6666FF;strokeColor=#000000;fontSize=12;" vertex="1" parent="1">
          <mxGeometry x="300" y="400" width="80" height="60" as="geometry" />
        </mxCell>
        <mxCell id="o73PWUz0UViW3Uit44hD-26" value="3" style="rounded=0;whiteSpace=wrap;html=1;shape=ellipse;fillColor=#FFFFFF;strokeColor=#000000;fontSize=10;" vertex="1" parent="1">
          <mxGeometry x="340" y="400" width="20" height="20" as="geometry" />
        </mxCell>
        <mxCell id="o73PWUz0UViW3Uit44hD-27" value="Westlake" style="rounded=0;whiteSpace=wrap;html=1;shape=rectangle;fillColor=#6666FF;strokeColor=#000000;fontSize=12;" vertex="1" parent="1">
          <mxGeometry x="400" y="400" width="80" height="60" as="geometry" />
        </mxCell>
        <mxCell id="o73PWUz0UViW3Uit44hD-28" value="4" style="rounded=0;whiteSpace=wrap;html=1;shape=ellipse;fillColor=#FFFFFF;strokeColor=#000000;fontSize=10;" vertex="1" parent="1">
          <mxGeometry x="440" y="400" width="20" height="20" as="geometry" />
        </mxCell>
        <mxCell id="o73PWUz0UViW3Uit44hD-29" value="Metropolis" style="rounded=0;whiteSpace=wrap;html=1;shape=rectangle;fillColor=#6666FF;strokeColor=#000000;fontSize=12;" vertex="1" parent="1">
          <mxGeometry x="500" y="400" width="80" height="60" as="geometry" />
        </mxCell>
        <mxCell id="o73PWUz0UViW3Uit44hD-30" value="5" style="rounded=0;whiteSpace=wrap;html=1;shape=ellipse;fillColor=#FFFFFF;strokeColor=#000000;fontSize=10;" vertex="1" parent="1">
          <mxGeometry x="540" y="400" width="20" height="20" as="geometry" />
        </mxCell>
        <mxCell id="o73PWUz0UViW3Uit44hD-31" value="Record Plant" style="rounded=0;whiteSpace=wrap;html=1;shape=rectangle;fillColor=#6666FF;strokeColor=#000000;fontSize=12;" vertex="1" parent="1">
          <mxGeometry x="600" y="400" width="80" height="60" as="geometry" />
        </mxCell>
        <mxCell id="o73PWUz0UViW3Uit44hD-32" value="6" style="rounded=0;whiteSpace=wrap;html=1;shape=ellipse;fillColor=#FFFFFF;strokeColor=#000000;fontSize=10;" vertex="1" parent="1">
          <mxGeometry x="640" y="400" width="20" height="20" as="geometry" />
        </mxCell>
        <mxCell id="o73PWUz0UViW3Uit44hD-33" value="Tree Sound" style="rounded=0;whiteSpace=wrap;html=1;shape=rectangle;fillColor=#6666FF;strokeColor=#000000;fontSize=12;" vertex="1" parent="1">
          <mxGeometry x="700" y="400" width="80" height="60" as="geometry" />
        </mxCell>
        <mxCell id="o73PWUz0UViW3Uit44hD-34" value="7" style="rounded=0;whiteSpace=wrap;html=1;shape=ellipse;fillColor=#FFFFFF;strokeColor=#000000;fontSize=10;" vertex="1" parent="1">
          <mxGeometry x="740" y="400" width="20" height="20" as="geometry" />
        </mxCell>
        <mxCell id="o73PWUz0UViW3Uit44hD-35" value="Studio 54" style="rounded=0;whiteSpace=wrap;html=1;shape=rectangle;fillColor=#6666FF;strokeColor=#000000;fontSize=12;" vertex="1" parent="1">
          <mxGeometry x="800" y="400" width="80" height="60" as="geometry" />
        </mxCell>
        <mxCell id="o73PWUz0UViW3Uit44hD-36" value="8" style="rounded=0;whiteSpace=wrap;html=1;shape=ellipse;fillColor=#FFFFFF;strokeColor=#000000;fontSize=10;" vertex="1" parent="1">
          <mxGeometry x="840" y="400" width="20" height="20" as="geometry" />
        </mxCell>
        <mxCell id="o73PWUz0UViW3Uit44hD-37" value="Chalice" style="rounded=0;whiteSpace=wrap;html=1;shape=rectangle;fillColor=#6666FF;strokeColor=#000000;fontSize=12;" vertex="1" parent="1">
          <mxGeometry x="900" y="400" width="80" height="60" as="geometry" />
        </mxCell>
        <mxCell id="o73PWUz0UViW3Uit44hD-38" value="9" style="rounded=0;whiteSpace=wrap;html=1;shape=ellipse;fillColor=#FFFFFF;strokeColor=#000000;fontSize=10;" vertex="1" parent="1">
          <mxGeometry x="940" y="400" width="20" height="20" as="geometry" />
        </mxCell>
        <mxCell id="o73PWUz0UViW3Uit44hD-39" value="Air Studios" style="rounded=0;whiteSpace=wrap;html=1;shape=rectangle;fillColor=#6666FF;strokeColor=#000000;fontSize=12;" vertex="1" parent="1">
          <mxGeometry x="1000" y="400" width="80" height="60" as="geometry" />
        </mxCell>
        <mxCell id="o73PWUz0UViW3Uit44hD-40" value="10" style="rounded=0;whiteSpace=wrap;html=1;shape=ellipse;fillColor=#FFFFFF;strokeColor=#000000;fontSize=10;" vertex="1" parent="1">
          <mxGeometry x="1040" y="400" width="20" height="20" as="geometry" />
        </mxCell>
        <mxCell id="o73PWUz0UViW3Uit44hD-41" value="2018" style="edgeStyle=orthogonalEdgeStyle;rounded=0;html=1;jettySize=auto;orthogonalLoop=1;endArrow=block;endFill=1;strokeColor=#0000FF;fontSize=10;" edge="1" parent="1" source="o73PWUz0UViW3Uit44hD-1" target="o73PWUz0UViW3Uit44hD-21">
          <mxGeometry relative="1" as="geometry" />
        </mxCell>
        <mxCell id="o73PWUz0UViW3Uit44hD-42" value="2018" style="edgeStyle=orthogonalEdgeStyle;rounded=0;html=1;jettySize=auto;orthogonalLoop=1;endArrow=block;endFill=1;strokeColor=#0000FF;fontSize=10;" edge="1" parent="1" source="o73PWUz0UViW3Uit44hD-3" target="o73PWUz0UViW3Uit44hD-21">
          <mxGeometry relative="1" as="geometry" />
        </mxCell>
        <mxCell id="o73PWUz0UViW3Uit44hD-43" value="2017" style="edgeStyle=orthogonalEdgeStyle;rounded=0;html=1;jettySize=auto;orthogonalLoop=1;endArrow=block;endFill=1;strokeColor=#0000FF;fontSize=10;" edge="1" parent="1" source="o73PWUz0UViW3Uit44hD-5" target="o73PWUz0UViW3Uit44hD-23">
          <mxGeometry relative="1" as="geometry" />
        </mxCell>
        <mxCell id="o73PWUz0UViW3Uit44hD-44" value="2017" style="edgeStyle=orthogonalEdgeStyle;rounded=0;html=1;jettySize=auto;orthogonalLoop=1;endArrow=block;endFill=1;strokeColor=#0000FF;fontSize=10;" edge="1" parent="1" source="o73PWUz0UViW3Uit44hD-7" target="o73PWUz0UViW3Uit44hD-23">
          <mxGeometry relative="1" as="geometry" />
        </mxCell>
        <mxCell id="o73PWUz0UViW3Uit44hD-45" value="2020" style="edgeStyle=orthogonalEdgeStyle;rounded=0;html=1;jettySize=auto;orthogonalLoop=1;endArrow=block;endFill=1;strokeColor=#0000FF;fontSize=10;" edge="1" parent="1" source="o73PWUz0UViW3Uit44hD-9" target="o73PWUz0UViW3Uit44hD-25">
          <mxGeometry relative="1" as="geometry" />
        </mxCell>
        <mxCell id="o73PWUz0UViW3Uit44hD-46" value="2021" style="edgeStyle=orthogonalEdgeStyle;rounded=0;html=1;jettySize=auto;orthogonalLoop=1;endArrow=block;endFill=1;strokeColor=#0000FF;fontSize=10;" edge="1" parent="1" source="o73PWUz0UViW3Uit44hD-11" target="o73PWUz0UViW3Uit44hD-27">
          <mxGeometry relative="1" as="geometry" />
        </mxCell>
        <mxCell id="o73PWUz0UViW3Uit44hD-47" value="2019" style="edgeStyle=orthogonalEdgeStyle;rounded=0;html=1;jettySize=auto;orthogonalLoop=1;endArrow=block;endFill=1;strokeColor=#0000FF;fontSize=10;" edge="1" parent="1" source="o73PWUz0UViW3Uit44hD-13" target="o73PWUz0UViW3Uit44hD-29">
          <mxGeometry relative="1" as="geometry" />
        </mxCell>
        <mxCell id="o73PWUz0UViW3Uit44hD-48" value="2019" style="edgeStyle=orthogonalEdgeStyle;rounded=0;html=1;jettySize=auto;orthogonalLoop=1;endArrow=block;endFill=1;strokeColor=#0000FF;fontSize=10;" edge="1" parent="1" source="o73PWUz0UViW3Uit44hD-15" target="o73PWUz0UViW3Uit44hD-31">
          <mxGeometry relative="1" as="geometry" />
        </mxCell>
        <mxCell id="o73PWUz0UViW3Uit44hD-49" value="2020" style="edgeStyle=orthogonalEdgeStyle;rounded=0;html=1;jettySize=auto;orthogonalLoop=1;endArrow=block;endFill=1;strokeColor=#0000FF;fontSize=10;" edge="1" parent="1" source="o73PWUz0UViW3Uit44hD-17" target="o73PWUz0UViW3Uit44hD-33">
          <mxGeometry relative="1" as="geometry" />
        </mxCell>
        <mxCell id="o73PWUz0UViW3Uit44hD-50" value="2011" style="edgeStyle=orthogonalEdgeStyle;rounded=0;html=1;jettySize=auto;orthogonalLoop=1;endArrow=block;endFill=1;strokeColor=#0000FF;fontSize=10;" edge="1" parent="1" source="o73PWUz0UViW3Uit44hD-19" target="o73PWUz0UViW3Uit44hD-35">
          <mxGeometry relative="1" as="geometry" />
        </mxCell>
        <mxCell id="o73PWUz0UViW3Uit44hD-51" value="2018" style="edgeStyle=orthogonalEdgeStyle;rounded=0;html=1;jettySize=auto;orthogonalLoop=1;endArrow=block;endFill=1;strokeColor=#0000FF;fontSize=10;" edge="1" parent="1" source="o73PWUz0UViW3Uit44hD-1" target="o73PWUz0UViW3Uit44hD-37">
          <mxGeometry relative="1" as="geometry" />
        </mxCell>
        <mxCell id="o73PWUz0UViW3Uit44hD-52" value="2018" style="edgeStyle=orthogonalEdgeStyle;rounded=0;html=1;jettySize=auto;orthogonalLoop=1;endArrow=block;endFill=1;strokeColor=#0000FF;fontSize=10;" edge="1" parent="1" source="o73PWUz0UViW3Uit44hD-3" target="o73PWUz0UViW3Uit44hD-39">
          <mxGeometry relative="1" as="geometry" />
        </mxCell>
      </root>
    </mxGraphModel>
  </diagram>
</mxfile>
